<?xml version="1.0" encoding="utf-8"?>
<svg version="1.1" xmlns:xlink="http://www.w3.org/1999/xlink" width="30px" height="28px" xmlns="http://www.w3.org/2000/svg">
  <defs>
    <mask fill="white" id="clip1">
      <path d="M 11.8203125 12.729567307692378  C 12.700520833333329 11.781650641025635  13.760416666666671 11.307692307692378  15 11.307692307692378  C 16.239583333333343 11.307692307692378  17.29947916666667 11.781650641025635  18.1796875 12.729567307692378  C 19.059895833333343 13.677483974359006  19.5 14.818910256410277  19.5 16.153846153846075  C 19.5 17.488782051281987  19.059895833333343 18.63020833333337  18.1796875 19.578125  C 17.29947916666667 20.52604166666663  16.239583333333343 21  15 21  C 13.760416666666671 21  12.700520833333329 20.52604166666663  11.8203125 19.578125  C 10.940104166666671 18.63020833333337  10.5 17.488782051281987  10.5 16.153846153846075  C 10.5 14.818910256410277  10.940104166666671 13.677483974359006  11.8203125 12.729567307692378  Z M 22.5 4.307692307692378  L 26 4.307692307692378  C 27.10416666666667 4.307692307692378  28.046875 4.728365384615358  28.828125 5.569711538461547  C 29.609375 6.411057692307622  30 7.426282051281987  30 8.615384615384642  L 30 23.692307692307622  C 30 24.881410256410277  29.609375 25.89663461538464  28.828125 26.73798076923083  C 28.046875 27.579326923076906  27.10416666666667 28  26 28  L 4 28  C 2.8958333333333286 28  1.9531250000000002 27.579326923076906  1.171875 26.73798076923083  C 0.390625 25.89663461538464  0 24.881410256410277  0 23.692307692307622  L 0 8.615384615384642  C 0 7.426282051281987  0.390625 6.411057692307622  1.171875 5.569711538461547  C 1.9531250000000002 4.728365384615358  2.8958333333333286 4.307692307692378  4 4.307692307692378  L 7.5 4.307692307692378  L 8.296875 2.0192307692308304  C 8.494791666666671 1.469551282051384  8.856770833333329 0.9955929487180128  9.3828125 0.5973557692308304  C 9.908854166666657 0.19911858974353436  10.447916666666671 0  11 0  L 19 0  C 19.55208333333333 0  20.091145833333343 0.19911858974353436  20.6171875 0.5973557692308304  C 21.143229166666657 0.9955929487180128  21.505208333333343 1.469551282051384  21.703125 2.0192307692308304  L 22.5 4.307692307692378  Z M 10.0546875 21.479567307692378  C 11.424479166666671 22.95472756410254  13.072916666666657 23.692307692307622  15 23.692307692307622  C 16.927083333333343 23.692307692307622  18.575520833333343 22.95472756410254  19.9453125 21.479567307692378  C 21.31510416666667 20.004407051281987  22 18.22916666666663  22 16.153846153846075  C 22 14.078525641025635  21.31510416666667 12.303285256410277  19.9453125 10.828125  C 18.575520833333343 9.352964743589723  16.927083333333343 8.615384615384642  15 8.615384615384642  C 13.072916666666657 8.615384615384642  11.424479166666671 9.352964743589723  10.0546875 10.828125  C 8.684895833333329 12.303285256410277  8 14.078525641025635  8 16.153846153846075  C 8 18.22916666666663  8.684895833333329 20.004407051281987  10.0546875 21.479567307692378  Z " fill-rule="evenodd" />
    </mask>
  </defs>
  <g transform="matrix(1 0 0 1 -1266 -344 )">
    <path d="M 11.8203125 12.729567307692378  C 12.700520833333329 11.781650641025635  13.760416666666671 11.307692307692378  15 11.307692307692378  C 16.239583333333343 11.307692307692378  17.29947916666667 11.781650641025635  18.1796875 12.729567307692378  C 19.059895833333343 13.677483974359006  19.5 14.818910256410277  19.5 16.153846153846075  C 19.5 17.488782051281987  19.059895833333343 18.63020833333337  18.1796875 19.578125  C 17.29947916666667 20.52604166666663  16.239583333333343 21  15 21  C 13.760416666666671 21  12.700520833333329 20.52604166666663  11.8203125 19.578125  C 10.940104166666671 18.63020833333337  10.5 17.488782051281987  10.5 16.153846153846075  C 10.5 14.818910256410277  10.940104166666671 13.677483974359006  11.8203125 12.729567307692378  Z M 22.5 4.307692307692378  L 26 4.307692307692378  C 27.10416666666667 4.307692307692378  28.046875 4.728365384615358  28.828125 5.569711538461547  C 29.609375 6.411057692307622  30 7.426282051281987  30 8.615384615384642  L 30 23.692307692307622  C 30 24.881410256410277  29.609375 25.89663461538464  28.828125 26.73798076923083  C 28.046875 27.579326923076906  27.10416666666667 28  26 28  L 4 28  C 2.8958333333333286 28  1.9531250000000002 27.579326923076906  1.171875 26.73798076923083  C 0.390625 25.89663461538464  0 24.881410256410277  0 23.692307692307622  L 0 8.615384615384642  C 0 7.426282051281987  0.390625 6.411057692307622  1.171875 5.569711538461547  C 1.9531250000000002 4.728365384615358  2.8958333333333286 4.307692307692378  4 4.307692307692378  L 7.5 4.307692307692378  L 8.296875 2.0192307692308304  C 8.494791666666671 1.469551282051384  8.856770833333329 0.9955929487180128  9.3828125 0.5973557692308304  C 9.908854166666657 0.19911858974353436  10.447916666666671 0  11 0  L 19 0  C 19.55208333333333 0  20.091145833333343 0.19911858974353436  20.6171875 0.5973557692308304  C 21.143229166666657 0.9955929487180128  21.505208333333343 1.469551282051384  21.703125 2.0192307692308304  L 22.5 4.307692307692378  Z M 10.0546875 21.479567307692378  C 11.424479166666671 22.95472756410254  13.072916666666657 23.692307692307622  15 23.692307692307622  C 16.927083333333343 23.692307692307622  18.575520833333343 22.95472756410254  19.9453125 21.479567307692378  C 21.31510416666667 20.004407051281987  22 18.22916666666663  22 16.153846153846075  C 22 14.078525641025635  21.31510416666667 12.303285256410277  19.9453125 10.828125  C 18.575520833333343 9.352964743589723  16.927083333333343 8.615384615384642  15 8.615384615384642  C 13.072916666666657 8.615384615384642  11.424479166666671 9.352964743589723  10.0546875 10.828125  C 8.684895833333329 12.303285256410277  8 14.078525641025635  8 16.153846153846075  C 8 18.22916666666663  8.684895833333329 20.004407051281987  10.0546875 21.479567307692378  Z " fill-rule="nonzero" fill="#ffffff" stroke="none" transform="matrix(1 0 0 1 1266 344 )" />
    <path d="M 11.8203125 12.729567307692378  C 12.700520833333329 11.781650641025635  13.760416666666671 11.307692307692378  15 11.307692307692378  C 16.239583333333343 11.307692307692378  17.29947916666667 11.781650641025635  18.1796875 12.729567307692378  C 19.059895833333343 13.677483974359006  19.5 14.818910256410277  19.5 16.153846153846075  C 19.5 17.488782051281987  19.059895833333343 18.63020833333337  18.1796875 19.578125  C 17.29947916666667 20.52604166666663  16.239583333333343 21  15 21  C 13.760416666666671 21  12.700520833333329 20.52604166666663  11.8203125 19.578125  C 10.940104166666671 18.63020833333337  10.5 17.488782051281987  10.5 16.153846153846075  C 10.5 14.818910256410277  10.940104166666671 13.677483974359006  11.8203125 12.729567307692378  Z " stroke-width="4" stroke="#cccccc" fill="none" transform="matrix(1 0 0 1 1266 344 )" mask="url(#clip1)" />
    <path d="M 22.5 4.307692307692378  L 26 4.307692307692378  C 27.10416666666667 4.307692307692378  28.046875 4.728365384615358  28.828125 5.569711538461547  C 29.609375 6.411057692307622  30 7.426282051281987  30 8.615384615384642  L 30 23.692307692307622  C 30 24.881410256410277  29.609375 25.89663461538464  28.828125 26.73798076923083  C 28.046875 27.579326923076906  27.10416666666667 28  26 28  L 4 28  C 2.8958333333333286 28  1.9531250000000002 27.579326923076906  1.171875 26.73798076923083  C 0.390625 25.89663461538464  0 24.881410256410277  0 23.692307692307622  L 0 8.615384615384642  C 0 7.426282051281987  0.390625 6.411057692307622  1.171875 5.569711538461547  C 1.9531250000000002 4.728365384615358  2.8958333333333286 4.307692307692378  4 4.307692307692378  L 7.5 4.307692307692378  L 8.296875 2.0192307692308304  C 8.494791666666671 1.469551282051384  8.856770833333329 0.9955929487180128  9.3828125 0.5973557692308304  C 9.908854166666657 0.19911858974353436  10.447916666666671 0  11 0  L 19 0  C 19.55208333333333 0  20.091145833333343 0.19911858974353436  20.6171875 0.5973557692308304  C 21.143229166666657 0.9955929487180128  21.505208333333343 1.469551282051384  21.703125 2.0192307692308304  L 22.5 4.307692307692378  Z " stroke-width="4" stroke="#cccccc" fill="none" transform="matrix(1 0 0 1 1266 344 )" mask="url(#clip1)" />
    <path d="M 10.0546875 21.479567307692378  C 11.424479166666671 22.95472756410254  13.072916666666657 23.692307692307622  15 23.692307692307622  C 16.927083333333343 23.692307692307622  18.575520833333343 22.95472756410254  19.9453125 21.479567307692378  C 21.31510416666667 20.004407051281987  22 18.22916666666663  22 16.153846153846075  C 22 14.078525641025635  21.31510416666667 12.303285256410277  19.9453125 10.828125  C 18.575520833333343 9.352964743589723  16.927083333333343 8.615384615384642  15 8.615384615384642  C 13.072916666666657 8.615384615384642  11.424479166666671 9.352964743589723  10.0546875 10.828125  C 8.684895833333329 12.303285256410277  8 14.078525641025635  8 16.153846153846075  C 8 18.22916666666663  8.684895833333329 20.004407051281987  10.0546875 21.479567307692378  Z " stroke-width="4" stroke="#cccccc" fill="none" transform="matrix(1 0 0 1 1266 344 )" mask="url(#clip1)" />
  </g>
</svg>