<?xml version="1.0" encoding="utf-8"?>
<svg version="1.1" xmlns:xlink="http://www.w3.org/1999/xlink" width="12px" height="12px" viewBox="1205 491  12 12" xmlns="http://www.w3.org/2000/svg">
  <path d="M 1211 491  C 1214.36 491  1217 493.64  1217 497  C 1217 500.36  1214.36 503  1211 503  C 1207.64 503  1205 500.36  1205 497  C 1205 493.64  1207.64 491  1211 491  Z " fill-rule="nonzero" fill="#ffffff" stroke="none" />
  <path d="M 1211 491.5  C 1214.08 491.5  1216.5 493.92  1216.5 497  C 1216.5 500.08  1214.08 502.5  1211 502.5  C 1207.92 502.5  1205.5 500.08  1205.5 497  C 1205.5 493.92  1207.92 491.5  1211 491.5  Z " stroke-width="1" stroke="#797979" fill="none" />
  <path d="M 1211 500  C 1209.32 500  1208 498.68  1208 497  C 1208 495.32  1209.32 494  1211 494  C 1212.68 494  1214 495.32  1214 497  C 1214 498.68  1212.68 500  1211 500  " fill-rule="nonzero" fill="#797979" stroke="none" />
</svg>