<?xml version="1.0" encoding="utf-8"?>
<svg version="1.1" xmlns:xlink="http://www.w3.org/1999/xlink" width="12px" height="12px" viewBox="1091 687  12 12" xmlns="http://www.w3.org/2000/svg">
  <path d="M 1097 687  C 1100.36 687  1103 689.64  1103 693  C 1103 696.36  1100.36 699  1097 699  C 1093.64 699  1091 696.36  1091 693  C 1091 689.64  1093.64 687  1097 687  Z " fill-rule="nonzero" fill="#f0f0f0" stroke="none" />
  <path d="M 1097 687.5  C 1100.08 687.5  1102.5 689.92  1102.5 693  C 1102.5 696.08  1100.08 698.5  1097 698.5  C 1093.92 698.5  1091.5 696.08  1091.5 693  C 1091.5 689.92  1093.92 687.5  1097 687.5  Z " stroke-width="1" stroke="#797979" fill="none" />
  <path d="M 1097 696  C 1095.32 696  1094 694.68  1094 693  C 1094 691.32  1095.32 690  1097 690  C 1098.68 690  1100 691.32  1100 693  C 1100 694.68  1098.68 696  1097 696  " fill-rule="nonzero" fill="#797979" stroke="none" />
</svg>