<?xml version="1.0" encoding="utf-8"?>
<svg version="1.1" xmlns:xlink="http://www.w3.org/1999/xlink" width="12px" height="12px" viewBox="1207 697  12 12" xmlns="http://www.w3.org/2000/svg">
  <path d="M 1213 697  C 1216.36 697  1219 699.64  1219 703  C 1219 706.36  1216.36 709  1213 709  C 1209.64 709  1207 706.36  1207 703  C 1207 699.64  1209.64 697  1213 697  Z " fill-rule="nonzero" fill="#f0f0f0" stroke="none" />
  <path d="M 1213 697.5  C 1216.08 697.5  1218.5 699.92  1218.5 703  C 1218.5 706.08  1216.08 708.5  1213 708.5  C 1209.92 708.5  1207.5 706.08  1207.5 703  C 1207.5 699.92  1209.92 697.5  1213 697.5  Z " stroke-width="1" stroke="#797979" fill="none" />
  <path d="M 1213 706  C 1211.32 706  1210 704.68  1210 703  C 1210 701.32  1211.32 700  1213 700  C 1214.68 700  1216 701.32  1216 703  C 1216 704.68  1214.68 706  1213 706  " fill-rule="nonzero" fill="#797979" stroke="none" />
</svg>