<?xml version="1.0" encoding="utf-8"?>
<svg version="1.1" xmlns:xlink="http://www.w3.org/1999/xlink" width="21px" height="21px" xmlns="http://www.w3.org/2000/svg">
  <g transform="matrix(1 0 0 1 -1368 -433 )">
    <path d="M 20.466796875 0.943359375  C 20.822265625 1.0983072916666288  21 1.3671875  21 1.75  L 21 7.875  C 21 8.111979166666629  20.91341145833337 8.317057291666629  20.740234375 8.490234375  C 20.56705729166663 8.663411458333371  20.36197916666663 8.75  20.125 8.75  L 14 8.75  C 13.6171875 8.75  13.34830729166663 8.567708333333371  13.193359375 8.203125  C 13.038411458333371 7.84765625  13.10221354166663 7.533203125  13.384765625 7.259765625  L 15.271484375 5.373046875  C 13.92252604166663 4.124348958333371  12.33203125 3.5  10.5 3.5  C 9.552083333333371 3.5  8.6474609375 3.6845703125  7.7861328125 4.0537109375  C 6.9248046875 4.4228515625  6.1796875 4.921875  5.55078125 5.55078125  C 4.921875 6.1796875  4.4228515625 6.9248046875  4.0537109375 7.7861328125  C 3.6845703125 8.6474609375  3.5 9.552083333333371  3.5 10.5  C 3.5 11.447916666666629  3.6845703125 12.3525390625  4.0537109375 13.2138671875  C 4.4228515625 14.0751953125  4.921875 14.8203125  5.55078125 15.44921875  C 6.1796875 16.078125  6.9248046875 16.5771484375  7.7861328125 16.9462890625  C 8.6474609375 17.3154296875  9.552083333333371 17.5  10.5 17.5  C 11.58463541666663 17.5  12.61002604166663 17.26302083333337  13.576171875 16.7890625  C 14.54231770833337 16.31510416666663  15.35807291666663 15.64518229166663  16.0234375 14.779296875  C 16.08723958333337 14.688151041666629  16.19205729166663 14.633463541666629  16.337890625 14.615234375  C 16.474609375 14.615234375  16.58854166666663 14.65625  16.6796875 14.73828125  L 18.552734375 16.625  C 18.634765625 16.69791666666663  18.67805989583337 16.79134114583337  18.6826171875 16.9052734375  C 18.68717447916663 17.01920572916663  18.65299479166663 17.12174479166663  18.580078125 17.212890625  C 17.58658854166663 18.416015625  16.38346354166663 19.34798177083337  14.970703125 20.0087890625  C 13.55794270833337 20.66959635416663  12.067708333333371 21  10.5 21  C 9.078125 21  7.720052083333371 20.72200520833337  6.42578125 20.166015625  C 5.131510416666629 19.61002604166663  4.014973958333371 18.86263020833337  3.076171875 17.923828125  C 2.1373697916666288 16.98502604166663  1.389973958333371 15.868489583333371  0.833984375 14.57421875  C 0.27799479166662877 13.279947916666629  0 11.921875  0 10.5  C 0 9.078125  0.27799479166662877 7.720052083333371  0.833984375 6.42578125  C 1.389973958333371 5.131510416666629  2.1373697916666288 4.014973958333371  3.076171875 3.076171875  C 4.014973958333371 2.1373697916666288  5.131510416666629 1.389973958333371  6.42578125 0.833984375  C 7.720052083333371 0.27799479166662877  9.078125 0  10.5 0  C 11.83984375 0  13.136393229166629 0.2529296875  14.3896484375 0.7587890625  C 15.642903645833371 1.2646484375  16.75716145833337 1.9778645833333712  17.732421875 2.8984375  L 19.509765625 1.134765625  C 19.77408854166663 0.8522135416666288  20.09309895833337 0.7884114583333712  20.466796875 0.943359375  Z " fill-rule="nonzero" fill="#0066ff" stroke="none" transform="matrix(1 0 0 1 1368 433 )" />
  </g>
</svg>