<?xml version="1.0" encoding="utf-8"?>
<svg version="1.1" xmlns:xlink="http://www.w3.org/1999/xlink" width="12px" height="12px" viewBox="1091 491  12 12" xmlns="http://www.w3.org/2000/svg">
  <path d="M 1097 491  C 1100.36 491  1103 493.64  1103 497  C 1103 500.36  1100.36 503  1097 503  C 1093.64 503  1091 500.36  1091 497  C 1091 493.64  1093.64 491  1097 491  Z " fill-rule="nonzero" fill="#f0f0f0" stroke="none" />
  <path d="M 1097 491.5  C 1100.08 491.5  1102.5 493.92  1102.5 497  C 1102.5 500.08  1100.08 502.5  1097 502.5  C 1093.92 502.5  1091.5 500.08  1091.5 497  C 1091.5 493.92  1093.92 491.5  1097 491.5  Z " stroke-width="1" stroke="#797979" fill="none" />
  <path d="M 1097 500  C 1095.32 500  1094 498.68  1094 497  C 1094 495.32  1095.32 494  1097 494  C 1098.68 494  1100 495.32  1100 497  C 1100 498.68  1098.68 500  1097 500  " fill-rule="nonzero" fill="#797979" stroke="none" />
</svg>