<?xml version="1.0" encoding="utf-8"?>
<svg version="1.1" xmlns:xlink="http://www.w3.org/1999/xlink" width="12px" height="12px" viewBox="1091 540  12 12" xmlns="http://www.w3.org/2000/svg">
  <path d="M 1097 540  C 1100.36 540  1103 542.64  1103 546  C 1103 549.36  1100.36 552  1097 552  C 1093.64 552  1091 549.36  1091 546  C 1091 542.64  1093.64 540  1097 540  Z " fill-rule="nonzero" fill="#ffffff" stroke="none" />
  <path d="M 1097 540.5  C 1100.08 540.5  1102.5 542.92  1102.5 546  C 1102.5 549.08  1100.08 551.5  1097 551.5  C 1093.92 551.5  1091.5 549.08  1091.5 546  C 1091.5 542.92  1093.92 540.5  1097 540.5  Z " stroke-width="1" stroke="#797979" fill="none" />
  <path d="M 1097 549  C 1095.32 549  1094 547.68  1094 546  C 1094 544.32  1095.32 543  1097 543  C 1098.68 543  1100 544.32  1100 546  C 1100 547.68  1098.68 549  1097 549  " fill-rule="nonzero" fill="#797979" stroke="none" />
</svg>