<?xml version="1.0" encoding="utf-8"?>
<svg version="1.1" xmlns:xlink="http://www.w3.org/1999/xlink" width="12px" height="12px" viewBox="1330 540  12 12" xmlns="http://www.w3.org/2000/svg">
  <path d="M 1336 540  C 1339.36 540  1342 542.64  1342 546  C 1342 549.36  1339.36 552  1336 552  C 1332.64 552  1330 549.36  1330 546  C 1330 542.64  1332.64 540  1336 540  Z " fill-rule="nonzero" fill="#f0f0f0" stroke="none" />
  <path d="M 1336 540.5  C 1339.08 540.5  1341.5 542.92  1341.5 546  C 1341.5 549.08  1339.08 551.5  1336 551.5  C 1332.92 551.5  1330.5 549.08  1330.5 546  C 1330.5 542.92  1332.92 540.5  1336 540.5  Z " stroke-width="1" stroke="#797979" fill="none" />
  <path d="M 1336 549  C 1334.32 549  1333 547.68  1333 546  C 1333 544.32  1334.32 543  1336 543  C 1337.68 543  1339 544.32  1339 546  C 1339 547.68  1337.68 549  1336 549  " fill-rule="nonzero" fill="#797979" stroke="none" />
</svg>