<?xml version="1.0" encoding="utf-8"?>
<svg version="1.1" xmlns:xlink="http://www.w3.org/1999/xlink" width="12px" height="12px" viewBox="1091 592  12 12" xmlns="http://www.w3.org/2000/svg">
  <path d="M 1097 592  C 1100.36 592  1103 594.64  1103 598  C 1103 601.36  1100.36 604  1097 604  C 1093.64 604  1091 601.36  1091 598  C 1091 594.64  1093.64 592  1097 592  Z " fill-rule="nonzero" fill="#f0f0f0" stroke="none" />
  <path d="M 1097 592.5  C 1100.08 592.5  1102.5 594.92  1102.5 598  C 1102.5 601.08  1100.08 603.5  1097 603.5  C 1093.92 603.5  1091.5 601.08  1091.5 598  C 1091.5 594.92  1093.92 592.5  1097 592.5  Z " stroke-width="1" stroke="#797979" fill="none" />
  <path d="M 1097 601  C 1095.32 601  1094 599.68  1094 598  C 1094 596.32  1095.32 595  1097 595  C 1098.68 595  1100 596.32  1100 598  C 1100 599.68  1098.68 601  1097 601  " fill-rule="nonzero" fill="#797979" stroke="none" />
</svg>