<?xml version="1.0" encoding="utf-8"?>
<svg version="1.1" xmlns:xlink="http://www.w3.org/1999/xlink" width="12px" height="12px" viewBox="1205 687  12 12" xmlns="http://www.w3.org/2000/svg">
  <path d="M 1211 687  C 1214.36 687  1217 689.64  1217 693  C 1217 696.36  1214.36 699  1211 699  C 1207.64 699  1205 696.36  1205 693  C 1205 689.64  1207.64 687  1211 687  Z " fill-rule="nonzero" fill="#f0f0f0" stroke="none" />
  <path d="M 1211 687.5  C 1214.08 687.5  1216.5 689.92  1216.5 693  C 1216.5 696.08  1214.08 698.5  1211 698.5  C 1207.92 698.5  1205.5 696.08  1205.5 693  C 1205.5 689.92  1207.92 687.5  1211 687.5  Z " stroke-width="1" stroke="#797979" fill="none" />
  <path d="M 1211 696  C 1209.32 696  1208 694.68  1208 693  C 1208 691.32  1209.32 690  1211 690  C 1212.68 690  1214 691.32  1214 693  C 1214 694.68  1212.68 696  1211 696  " fill-rule="nonzero" fill="#797979" stroke="none" />
</svg>