<?xml version="1.0" encoding="utf-8"?>
<svg version="1.1" xmlns:xlink="http://www.w3.org/1999/xlink" width="12px" height="12px" viewBox="1344 697  12 12" xmlns="http://www.w3.org/2000/svg">
  <path d="M 1350 697  C 1353.36 697  1356 699.64  1356 703  C 1356 706.36  1353.36 709  1350 709  C 1346.64 709  1344 706.36  1344 703  C 1344 699.64  1346.64 697  1350 697  Z " fill-rule="nonzero" fill="#f0f0f0" stroke="none" />
  <path d="M 1350 697.5  C 1353.08 697.5  1355.5 699.92  1355.5 703  C 1355.5 706.08  1353.08 708.5  1350 708.5  C 1346.92 708.5  1344.5 706.08  1344.5 703  C 1344.5 699.92  1346.92 697.5  1350 697.5  Z " stroke-width="1" stroke="#797979" fill="none" />
  <path d="M 1350 706  C 1348.32 706  1347 704.68  1347 703  C 1347 701.32  1348.32 700  1350 700  C 1351.68 700  1353 701.32  1353 703  C 1353 704.68  1351.68 706  1350 706  " fill-rule="nonzero" fill="#797979" stroke="none" />
</svg>